<?xml version="1.0" standalone="no"?>
<!DOCTYPE svg PUBLIC "-//W3C//DTD SVG 20010904//EN"
 "http://www.w3.org/TR/2001/REC-SVG-20010904/DTD/svg10.dtd">
<svg version="1.0" xmlns="http://www.w3.org/2000/svg"
 width="2000.000000pt" height="2000.000000pt" viewBox="0 0 2000.000000 2000.000000"
 preserveAspectRatio="xMidYMid meet">

<g transform="translate(0.000000,2000.000000) scale(0.100000,-0.100000)"
fill="#000000" stroke="none">
<path d="M4990 15005 l-585 -585 2210 -2210 2210 -2210 -2210 -2210 -2210
-2210 588 -587 587 -588 2210 2210 2210 2210 2210 -2210 2210 -2210 587 588
588 587 -2210 2210 -2210 2210 2210 2210 2210 2210 -588 587 -587 588 -2210
-2210 -2210 -2210 -2208 2208 c-1214 1214 -2209 2207 -2212 2207 -3 0 -268
-263 -590 -585z"/>
</g>
</svg>
