<?xml version="1.0" standalone="no"?>
<!DOCTYPE svg PUBLIC "-//W3C//DTD SVG 20010904//EN"
 "http://www.w3.org/TR/2001/REC-SVG-20010904/DTD/svg10.dtd">
<svg version="1.0" xmlns="http://www.w3.org/2000/svg"
 width="852.000000pt" height="240.000000pt" viewBox="0 0 852.000000 240.000000"
 preserveAspectRatio="xMidYMid meet">
<metadata>
Created by potrace 1.10, written by Peter Selinger 2001-2011
</metadata>
<g transform="translate(0.000000,240.000000) scale(0.100000,-0.100000)"
fill="#ffffff" stroke="none">
<path d="M830 1547 c0 -199 -3 -276 -12 -285 -17 -17 -73 -15 -88 3 -15 18
-47 20 -52 4 -8 -23 5 -79 17 -79 7 0 18 -7 25 -15 18 -22 127 -20 162 3 47
31 71 71 74 121 2 50 7 488 5 509 -1 8 -21 12 -66 12 l-65 0 0 -273z"/>
<path d="M1117 1813 c-11 -11 -8 -377 4 -458 10 -66 16 -80 49 -113 60 -63
111 -82 216 -82 62 1 95 5 108 15 11 8 27 15 35 15 20 1 59 35 91 80 24 34 25
39 31 285 3 137 3 254 -1 258 -4 4 -34 7 -66 5 l-59 -3 -2 -215 c-1 -118 -2
-229 -2 -246 -1 -22 -12 -42 -38 -67 -34 -35 -40 -37 -98 -37 -58 0 -64 2 -98
37 -42 41 -39 11 -37 331 l1 202 -64 0 c-35 0 -67 -3 -70 -7z"/>
<path d="M1816 1805 c-4 -12 -9 -439 -6 -622 0 -22 4 -23 65 -23 l66 0 -6 223
c-4 122 -11 247 -16 276 -11 64 -3 77 30 50 16 -13 25 -33 29 -64 2 -25 9 -48
13 -51 5 -3 9 -17 9 -32 0 -15 6 -36 14 -47 7 -11 16 -31 19 -45 3 -14 11 -41
17 -60 7 -19 18 -51 25 -70 11 -30 41 -129 51 -167 4 -17 116 -17 132 -1 7 7
12 23 12 38 1 14 7 36 15 50 8 14 14 35 15 46 0 12 7 27 15 34 8 7 15 24 15
39 0 14 7 35 15 45 8 11 15 29 15 40 0 11 11 50 24 86 13 36 27 81 30 101 8
43 52 91 62 66 3 -9 1 -40 -5 -69 -5 -29 -11 -150 -13 -268 l-3 -215 64 0 64
0 -1 309 c-1 169 -4 317 -7 327 -6 17 -17 19 -88 19 -86 -1 -127 -18 -127 -54
0 -8 -7 -32 -16 -53 -28 -63 -41 -96 -59 -143 -10 -25 -24 -59 -31 -77 -8 -17
-14 -40 -14 -51 0 -12 -4 -23 -9 -26 -4 -3 -11 -19 -14 -36 -8 -38 -35 -40
-43 -2 -3 15 -9 36 -14 47 -5 11 -11 31 -13 45 -3 14 -15 50 -27 80 -12 30
-24 67 -27 82 -3 15 -11 33 -19 39 -8 6 -14 22 -14 36 0 29 -15 59 -43 91 -18
20 -30 22 -108 22 -68 0 -88 -3 -93 -15z"/>
<path d="M2746 1804 c-3 -9 -6 -157 -6 -330 l0 -314 66 0 66 0 -3 118 -4 117
82 3 c56 2 85 7 93 17 7 8 22 15 34 15 12 0 37 14 54 31 70 69 94 189 50 251
-32 44 -70 77 -89 78 -9 0 -22 7 -29 15 -19 23 -305 22 -314 -1z m279 -99 c27
-22 29 -29 29 -93 0 -64 -2 -71 -29 -95 -26 -23 -40 -26 -95 -27 l-65 0 2 117
c1 65 2 119 2 121 1 1 29 2 64 2 50 -1 67 -5 92 -25z"/>
<path d="M3650 1805 c-7 -8 -22 -15 -34 -15 -39 0 -86 -65 -94 -130 -5 -32 -4
-68 0 -81 11 -29 67 -89 84 -89 6 0 14 -7 18 -15 3 -8 13 -15 22 -15 33 0 152
-64 158 -85 11 -39 6 -64 -20 -94 -24 -29 -30 -31 -95 -31 -38 0 -69 4 -69 9
0 5 -10 13 -22 17 -13 3 -31 13 -40 21 -9 8 -27 13 -40 11 -48 -7 -12 -117 40
-118 9 0 26 -7 36 -15 27 -21 175 -21 202 0 10 8 25 15 32 15 26 0 81 52 101
94 12 23 21 59 21 80 0 42 -36 113 -62 121 -9 3 -19 12 -22 20 -3 8 -16 15
-30 15 -13 0 -26 7 -30 15 -3 9 -18 15 -35 15 -16 0 -31 6 -35 15 -3 8 -15 15
-26 15 -55 0 -82 93 -37 131 28 23 118 26 137 4 7 -8 18 -15 26 -15 7 0 17 -7
22 -16 5 -9 18 -14 33 -12 21 3 24 8 21 37 -4 42 -29 81 -51 81 -9 0 -25 7
-35 15 -28 21 -159 21 -176 0z"/>
<path d="M3980 1775 l0 -44 103 -3 c85 -3 101 -5 97 -18 -6 -19 -16 -520 -11
-538 2 -9 22 -12 70 -10 l66 3 -2 283 -2 282 94 0 95 0 0 45 0 45 -255 0 -255
0 0 -45z"/>
<path d="M4716 1788 c-9 -17 -16 -39 -16 -49 0 -10 -7 -35 -16 -56 -42 -95
-63 -155 -71 -193 -2 -14 -11 -38 -18 -55 -37 -86 -45 -107 -45 -123 0 -10 -7
-27 -15 -39 -8 -12 -18 -42 -22 -68 l-6 -46 64 3 c63 3 64 3 67 33 2 17 10 49
19 73 l16 42 131 0 131 0 18 -49 c9 -27 17 -60 17 -75 0 -26 1 -26 75 -26 72
0 75 1 75 24 0 13 -7 29 -15 36 -8 7 -15 22 -15 33 0 18 -24 79 -51 129 -5 10
-9 28 -9 40 -1 13 -7 34 -15 48 -8 14 -14 35 -15 46 0 12 -7 27 -15 34 -8 7
-15 25 -15 39 0 15 -7 36 -15 47 -8 10 -15 31 -15 45 0 14 -7 34 -15 45 -8 10
-15 30 -15 45 0 41 -18 49 -101 49 -77 0 -78 0 -93 -32z m110 -123 c3 -19 10
-38 15 -41 5 -3 9 -20 9 -38 0 -18 7 -41 15 -52 8 -10 15 -31 15 -45 0 -14 7
-34 15 -45 30 -39 21 -44 -90 -44 -102 0 -105 1 -105 23 0 12 7 31 15 41 8 11
15 29 15 40 0 12 7 30 15 40 8 11 15 32 15 47 0 16 4 38 9 51 5 13 12 31 15
41 9 30 35 19 42 -18z"/>
<path d="M5202 1798 c-4 -13 -6 -161 -4 -330 l3 -308 65 0 65 0 -2 130 c-1 72
2 135 7 140 5 5 28 6 51 3 47 -6 76 -36 105 -108 9 -22 27 -67 41 -100 l24
-60 63 -3 c35 -2 68 2 73 7 9 9 -34 113 -74 181 -5 8 -13 25 -19 37 -5 12 -21
29 -35 39 -33 21 -35 64 -2 64 27 1 56 25 80 67 22 39 23 126 2 143 -8 7 -15
20 -15 29 0 19 -51 61 -73 61 -8 0 -20 7 -27 15 -10 12 -42 15 -166 15 -151 0
-155 0 -162 -22z m287 -89 c36 -30 41 -108 10 -153 -22 -32 -27 -35 -89 -38
-36 -2 -69 -1 -74 4 -6 5 -11 167 -6 206 0 1 30 2 68 2 52 -1 72 -5 91 -21z"/>
<path d="M5720 1775 l0 -45 101 0 102 0 -6 -37 c-5 -29 -10 -418 -8 -516 1
-16 9 -18 69 -15 l67 3 0 283 -1 282 93 0 93 0 0 45 0 45 -255 0 -255 0 0 -45z"/>
<path d="M6068 983 l-108 -4 0 -224 0 -225 110 -2 c61 -1 120 -2 133 -2 18 -1
23 5 25 32 4 36 8 35 -100 32 l-78 -2 0 77 0 77 63 -2 c88 -3 87 -3 87 30 l0
30 -75 0 -75 0 0 60 0 60 90 0 90 0 0 29 c0 28 -17 44 -43 39 -7 -1 -60 -4
-119 -5z"/>
<path d="M6423 983 l-103 -4 0 -224 0 -225 105 -2 c58 -1 117 -2 133 -2 23 -1
27 3 30 32 4 37 6 36 -105 32 l-73 -2 0 77 0 77 63 -2 c88 -3 87 -3 87 30 0
33 1 33 -87 30 l-63 -2 0 61 0 60 88 3 c86 3 87 3 90 29 2 20 -2 28 -20 33
-13 3 -27 5 -33 4 -5 -1 -56 -4 -112 -5z"/>
<path d="M4800 965 c-7 -8 -18 -15 -25 -15 -37 0 -105 -126 -105 -196 0 -71
60 -194 95 -194 7 0 18 -7 25 -15 20 -25 154 -21 191 6 34 24 41 69 10 69 -10
0 -24 -7 -31 -15 -19 -23 -97 -19 -135 6 -24 17 -34 34 -43 73 -15 65 -15 84
0 142 17 62 55 94 113 94 26 0 50 -6 59 -16 22 -22 60 -14 64 12 2 15 -7 29
-26 43 -38 27 -171 31 -192 6z"/>
<path d="M5187 973 c-4 -3 -7 -19 -7 -33 0 -15 -13 -58 -29 -96 -37 -91 -51
-132 -60 -175 -4 -19 -12 -42 -17 -50 -5 -8 -14 -29 -20 -47 -11 -31 -11 -34
14 -43 36 -14 70 3 78 38 3 15 7 34 10 41 3 9 28 12 101 10 l98 -3 5 -39 c4
-34 9 -41 35 -48 17 -4 38 -5 48 -2 29 9 16 67 -40 176 -7 14 -13 35 -13 47 0
20 -18 69 -46 123 -8 14 -14 36 -14 48 0 47 -17 60 -79 60 -32 0 -61 -3 -64
-7z m102 -168 c12 -43 26 -84 31 -89 27 -27 10 -36 -65 -36 -71 0 -75 1 -75
23 1 12 7 33 15 47 8 14 14 35 15 48 0 31 40 106 50 96 5 -5 18 -45 29 -89z"/>
<path d="M5540 756 l0 -224 36 -7 c22 -4 41 -2 47 4 7 7 10 45 8 96 l-3 85 39
0 c32 0 43 -6 61 -30 12 -16 22 -35 22 -43 0 -7 7 -22 15 -33 8 -10 15 -29 15
-41 0 -12 3 -24 8 -27 18 -11 78 -16 92 -6 13 8 11 17 -12 62 -16 30 -28 58
-28 65 0 6 -13 23 -30 36 -28 24 -39 47 -22 47 18 0 62 53 71 85 8 29 6 44
-10 80 -11 25 -26 45 -33 45 -8 0 -19 7 -26 15 -10 12 -38 15 -131 15 l-119 0
0 -224z m216 138 c30 -32 31 -69 2 -100 -19 -19 -33 -24 -75 -24 l-53 0 0 75
0 75 51 0 c43 0 56 -5 75 -26z"/>
<path d="M6680 755 l0 -224 36 -7 c52 -10 59 3 55 101 l-3 85 40 0 c32 0 43
-5 58 -27 20 -30 42 -82 51 -121 7 -29 47 -45 90 -37 18 3 33 7 33 9 0 9 -42
86 -50 91 -5 3 -10 15 -10 25 0 10 -13 30 -30 43 -37 32 -37 37 -1 61 29 20
61 73 61 102 0 25 -40 94 -54 94 -7 0 -19 7 -26 15 -10 12 -38 15 -131 15
l-119 0 0 -225z m218 135 c28 -37 28 -66 0 -96 -19 -19 -33 -24 -75 -24 l-53
0 0 75 0 75 53 0 c47 0 56 -3 75 -30z"/>
</g>
</svg>
